<svg width="72" height="72" viewBox="0 0 72 72" fill="none" xmlns="http://www.w3.org/2000/svg">
<path d="M8.91113 41.5844H17.8221C19.3977 41.5844 20.9087 42.2103 22.0228 43.3244C23.1369 44.4385 23.7627 45.9495 23.7627 47.5251V56.436C23.7627 58.0116 23.1369 59.5226 22.0228 60.6367C20.9087 61.7508 19.3977 62.3767 17.8221 62.3767H14.8518C13.2762 62.3767 11.7652 61.7508 10.6511 60.6367C9.53702 59.5226 8.91113 58.0116 8.91113 56.436V35.6438C8.91113 28.5538 11.7276 21.7542 16.741 16.7408C21.7544 11.7274 28.554 8.91089 35.644 8.91089C42.734 8.91089 49.5336 11.7274 54.547 16.7408C59.5604 21.7542 62.3769 28.5538 62.3769 35.6438V56.436C62.3769 58.0116 61.751 59.5226 60.6369 60.6367C59.5229 61.7508 58.0118 62.3767 56.4363 62.3767H53.466C51.8904 62.3767 50.3794 61.7508 49.2653 60.6367C48.1512 59.5226 47.5253 58.0116 47.5253 56.436V47.5251C47.5253 45.9495 48.1512 44.4385 49.2653 43.3244C50.3794 42.2103 51.8904 41.5844 53.466 41.5844H62.3769" stroke="#364153" stroke-width="5.94064" stroke-linecap="round" stroke-linejoin="round"/>
</svg>
