<svg width="21" height="21" viewBox="0 0 21 21" fill="none" xmlns="http://www.w3.org/2000/svg">
<path d="M16.9731 11.0325C16.9731 15.2758 14.0028 17.3974 10.4724 18.628C10.2875 18.6906 10.0867 18.6876 9.90378 18.6195C6.36485 17.3974 3.39453 15.2758 3.39453 11.0325V5.09181C3.39453 4.86673 3.48394 4.65087 3.6431 4.49172C3.80225 4.33256 4.01812 4.24315 4.24319 4.24315C5.94052 4.24315 8.06218 3.22475 9.53885 1.93478C9.71865 1.78118 9.94736 1.69678 10.1838 1.69678C10.4203 1.69678 10.649 1.78118 10.8288 1.93478C12.314 3.23324 14.4272 4.24315 16.1245 4.24315C16.3496 4.24315 16.5654 4.33256 16.7246 4.49172C16.8837 4.65087 16.9731 4.86673 16.9731 5.09181V11.0325Z" stroke="white" stroke-width="1.69733" stroke-linecap="round" stroke-linejoin="round"/>
</svg>
