<svg width="26" height="26" viewBox="0 0 26 26" fill="none" xmlns="http://www.w3.org/2000/svg">
<path d="M12.2261 2.43466C12.2725 2.34073 12.3444 2.26167 12.4334 2.20639C12.5224 2.15112 12.6251 2.12183 12.73 2.12183C12.8348 2.12183 12.9375 2.15112 13.0265 2.20639C13.1155 2.26167 13.1874 2.34073 13.2338 2.43466L15.6844 7.39828C15.8458 7.72498 16.0841 8.00763 16.3788 8.22196C16.6735 8.4363 17.0158 8.57592 17.3764 8.62884L22.8566 9.43083C22.9605 9.44587 23.058 9.48967 23.1383 9.55728C23.2185 9.62488 23.2782 9.71359 23.3107 9.81337C23.3431 9.91315 23.347 10.02 23.3219 10.1219C23.2968 10.2238 23.2436 10.3166 23.1685 10.3898L19.2053 14.2491C18.9439 14.5038 18.7483 14.8182 18.6354 15.1653C18.5225 15.5123 18.4956 15.8816 18.5571 16.2413L19.4927 21.694C19.5111 21.7978 19.4999 21.9047 19.4604 22.0024C19.4209 22.1001 19.3548 22.1848 19.2695 22.2467C19.1842 22.3086 19.0832 22.3454 18.9781 22.3527C18.8729 22.36 18.7679 22.3376 18.6748 22.2881L13.7759 19.7124C13.4531 19.5429 13.094 19.4543 12.7294 19.4543C12.3648 19.4543 12.0057 19.5429 11.6829 19.7124L6.78506 22.2881C6.69206 22.3373 6.58711 22.3595 6.48215 22.352C6.37718 22.3445 6.27642 22.3078 6.19131 22.2459C6.10621 22.184 6.04019 22.0994 6.00075 22.0019C5.96131 21.9043 5.95004 21.7977 5.96823 21.694L6.90282 16.2424C6.96455 15.8825 6.93781 15.513 6.82489 15.1657C6.71197 14.8185 6.51626 14.5039 6.25465 14.2491L2.29139 10.3909C2.21564 10.3177 2.16196 10.2247 2.13647 10.1226C2.11098 10.0204 2.1147 9.9131 2.1472 9.81293C2.17971 9.71276 2.2397 9.62373 2.32033 9.55599C2.40096 9.48824 2.499 9.44451 2.60328 9.42976L8.08246 8.62884C8.44341 8.57633 8.7862 8.43689 9.08132 8.22253C9.37644 8.00817 9.61504 7.7253 9.7766 7.39828L12.2261 2.43466Z" fill="#FDC700" stroke="#FDC700" stroke-width="2.12166" stroke-linecap="round" stroke-linejoin="round"/>
</svg>
