<svg width="62" height="62" viewBox="0 0 62 62" fill="none" xmlns="http://www.w3.org/2000/svg">
<path d="M7.63794 35.6438H15.2759C16.6264 35.6438 17.9216 36.1803 18.8765 37.1352C19.8314 38.0902 20.3679 39.3853 20.3679 40.7358V48.3738C20.3679 49.7243 19.8314 51.0194 18.8765 51.9743C17.9216 52.9293 16.6264 53.4658 15.2759 53.4658H12.7299C11.3794 53.4658 10.0843 52.9293 9.12935 51.9743C8.17441 51.0194 7.63794 49.7243 7.63794 48.3738V30.5518C7.63794 24.4747 10.0521 18.6465 14.3493 14.3493C18.6465 10.0521 24.4747 7.63794 30.5518 7.63794C36.629 7.63794 42.4572 10.0521 46.7544 14.3493C51.0516 18.6465 53.4658 24.4747 53.4658 30.5518V48.3738C53.4658 49.7243 52.9293 51.0194 51.9743 51.9743C51.0194 52.9293 49.7243 53.4658 48.3738 53.4658H45.8278C44.4773 53.4658 43.1821 52.9293 42.2272 51.9743C41.2723 51.0194 40.7358 49.7243 40.7358 48.3738V40.7358C40.7358 39.3853 41.2723 38.0902 42.2272 37.1352C43.1821 36.1803 44.4773 35.6438 45.8278 35.6438H53.4658" stroke="white" stroke-width="5.09198" stroke-linecap="round" stroke-linejoin="round"/>
</svg>
