<svg width="24" height="23" viewBox="0 0 24 23" fill="none" xmlns="http://www.w3.org/2000/svg">
<path d="M11.1671 1.37362C11.2136 1.2797 11.2854 1.20064 11.3744 1.14536C11.4635 1.09008 11.5662 1.06079 11.671 1.06079C11.7758 1.06079 11.8785 1.09008 11.9675 1.14536C12.0566 1.20064 12.1284 1.2797 12.1749 1.37362L14.6254 6.33724C14.7868 6.66394 15.0251 6.94659 15.3198 7.16093C15.6146 7.37526 15.9569 7.51488 16.3174 7.5678L21.7977 8.36979C21.9015 8.38484 21.9991 8.42864 22.0793 8.49624C22.1595 8.56384 22.2193 8.65255 22.2517 8.75233C22.2842 8.85211 22.2881 8.95898 22.2629 9.06085C22.2378 9.16272 22.1847 9.25553 22.1095 9.32878L18.1463 13.1881C17.8849 13.4428 17.6894 13.7572 17.5765 14.1042C17.4635 14.4513 17.4367 14.8206 17.4981 15.1803L18.4338 20.633C18.4521 20.7368 18.4409 20.8436 18.4014 20.9413C18.3619 21.0391 18.2958 21.1237 18.2105 21.1857C18.1252 21.2476 18.0243 21.2843 17.9191 21.2916C17.814 21.299 17.7089 21.2766 17.6159 21.227L12.717 18.6513C12.3942 18.4819 12.035 18.3933 11.6705 18.3933C11.3059 18.3933 10.9467 18.4819 10.624 18.6513L5.7261 21.227C5.6331 21.2763 5.52815 21.2984 5.42319 21.291C5.31822 21.2835 5.21746 21.2467 5.13235 21.1848C5.04725 21.1229 4.98123 21.0384 4.94179 20.9409C4.90235 20.8433 4.89108 20.7366 4.90927 20.633L5.84386 15.1814C5.90559 14.8215 5.87885 14.4519 5.76593 14.1047C5.65301 13.7574 5.4573 13.4428 5.19569 13.1881L1.23243 9.32984C1.15668 9.25668 1.103 9.16371 1.07751 9.06153C1.05202 8.95935 1.05574 8.85206 1.08824 8.75189C1.12075 8.65172 1.18074 8.56269 1.26137 8.49495C1.342 8.42721 1.44004 8.38347 1.54432 8.36873L7.0235 7.5678C7.38445 7.51529 7.72724 7.37585 8.02236 7.16149C8.31748 6.94713 8.55608 6.66426 8.71764 6.33724L11.1671 1.37362Z" stroke="#F0B100" stroke-width="2.12166" stroke-linecap="round" stroke-linejoin="round"/>
</svg>
