<svg width="62" height="62" viewBox="0 0 62 62" fill="none" xmlns="http://www.w3.org/2000/svg">
<path d="M40.7359 53.4656V48.3737C40.7359 45.6727 39.6629 43.0824 37.7531 41.1725C35.8432 39.2626 33.2529 38.1897 30.5519 38.1897H15.276C12.575 38.1897 9.98472 39.2626 8.07485 41.1725C6.16499 43.0824 5.09204 45.6727 5.09204 48.3737V53.4656" stroke="white" stroke-width="5.09198" stroke-linecap="round" stroke-linejoin="round"/>
<path d="M22.9139 28.0059C28.5384 28.0059 33.0979 23.4463 33.0979 17.8219C33.0979 12.1975 28.5384 7.63794 22.9139 7.63794C17.2895 7.63794 12.73 12.1975 12.73 17.8219C12.73 23.4463 17.2895 28.0059 22.9139 28.0059Z" stroke="white" stroke-width="5.09198" stroke-linecap="round" stroke-linejoin="round"/>
<path d="M56.0117 53.4657V48.3737C56.0101 46.1173 55.259 43.9253 53.8766 42.142C52.4941 40.3586 50.5586 39.0849 48.3738 38.5208" stroke="white" stroke-width="5.09198" stroke-linecap="round" stroke-linejoin="round"/>
<path d="M40.7358 7.96899C42.9264 8.52988 44.8681 9.80389 46.2546 11.5902C47.6412 13.3765 48.3938 15.5734 48.3938 17.8347C48.3938 20.096 47.6412 22.2929 46.2546 24.0792C44.8681 25.8655 42.9264 27.1395 40.7358 27.7004" stroke="white" stroke-width="5.09198" stroke-linecap="round" stroke-linejoin="round"/>
</svg>
